<svg width="100" height="100" xmlns="http://www.w3.org/2000/svg">
 <g>
  <title>Layer 1</title>
  <path d="m237.39999,132c-1,0 -2.02675,0.77025 -3,1c-2.17625,0.51375 -2.01286,1.92206 22,-2c49.97375,-8.16229 131.8429,-11.41186 166,11c3.54724,2.32748 5.48874,7.02997 5,11c-0.50378,4.09221 -29.36154,41.83354 -73,65c-20.67645,10.97656 -28.15469,10.98401 -31,8c-3.51877,-3.69031 -2.91934,-11.29468 3,-18c7.15848,-8.10901 16.19318,-14.57626 46,-6c13.3508,3.8414 14.94577,8.87726 15,13c0.12128,9.21875 -27.29498,31.94502 -36,34c-6.81274,1.60828 -13.44101,-4.09039 -12,-10c1.18451,-4.85767 25.98523,-15.63902 46,-15c35.2099,1.12418 43,6 46,9c0,0 0.59882,2.11462 -21,13c-24.39053,12.29233 -36.31073,10.08026 -37,13c-0.51373,2.17624 5.26599,0.13901 13,3c6.29153,2.32739 8,4 8,5l1,2l0,0" id="svg_1" stroke="#000" fill="none"/>
  <path d="m496.39999,321c2,0 6,0 8,0c2,0 2,1 2,2l-1,1" id="svg_2" stroke="#000" fill="none"/>
  <path fill="#C48157" stroke="#000" opacity="undefined" d="m3.81749,49.9618l46,-45.88959l46,45.88959l-23,0l0,46.1104l-46,0l0,-46.1104" id="svg_5"/>
  <rect id="svg_3" height="46" width="93" y="51" x="3" stroke="#000" fill="#2D6862"/>
  <rect id="svg_4" height="0" width="0" y="212" x="83" opacity="NaN" stroke="#000" fill="#2D6862"/>
 </g>

</svg>